# xmcd
#
# Track frame offsets:
#	150
#	11025
#	22564
#	35288
#	45929
#	57510
#	70696
#	83593
#	94655
#	106759
#	118487
#	132665
#	143509
#	155074
#	165694
#	178432
#	190733
#	204571
#
# Disc length: 2863 seconds
#
# Revision: 1
# Processed by: cddbd v1.5.1PL2 Copyright (c) Steve Scherf et al.
# Submitted via: dBpowerAMP V4.0
#
DISCID=ee0b2d12
DTITLE=Various Artist - The Great Soul Collection - Disc 1
DYEAR=1900
DGENRE=Soul
TTITLE0=Sam and Dave - Sweet Soul Music
TTITLE1=Percy Sledge - (Sittin' On) The Dock Of The Bay
TTITLE2=Mary Wells - My Guy
TTITLE3=George McCrae - It's Been So Long
TTITLE4=Brook Benton - Thank You Baby
TTITLE5=Lloyd Price - Stagger Lee
TTITLE6=Fontella Bass - Rescue Me
TTITLE7=The Tams - Hey Girl, Don't Bother Me
TTITLE8=Martha Reeves - Dancing In The Street
TTITLE9=Gene Chandler - Duke Of Earl
TTITLE10=Dave "Baby" Cortez - Green Onions
TTITLE11=Rufus Thomas - Walking The Dog
TTITLE12=Brenton Wood - The Oogum Boogum Song
TTITLE13=Barbara George - I Know (You Don't Love Me No More)
TTITLE14=Archie Bell and The Drells - Tighten Up
TTITLE15=Tyrone Davis - Turn Back The Hands Of Time
TTITLE16=Eddie Floyd - Knock On Wood
TTITLE17=The Crystals - He's A Rebel
EXTD=
EXTT0=
EXTT1=
EXTT2=
EXTT3=
EXTT4=
EXTT5=
EXTT6=
EXTT7=
EXTT8=
EXTT9=
EXTT10=
EXTT11=
EXTT12=
EXTT13=
EXTT14=
EXTT15=
EXTT16=
EXTT17=
PLAYORDER=
